<svg width="50" height="50" viewBox="0 0 50 50" fill="none" xmlns="http://www.w3.org/2000/svg">
<g clip-path="url(#clip0_204_435)">
<path d="M49.9036 27.3096C49.4547 22.7941 47.4374 18.5371 44.2231 15.3227C41.4761 12.5759 38.114 10.8107 34.5762 10.0259V7.54458C36.0212 7.1851 37.0952 5.87717 37.0952 4.32256C37.0952 2.49167 35.6057 1.0022 33.7748 1.0022H26.7435C24.9126 1.0022 23.4231 2.49167 23.4231 4.32256C23.4231 5.87708 24.4972 7.18501 25.942 7.54458V10.0328C22.4151 10.821 19.0641 12.5837 16.325 15.3228C15.7255 15.9223 15.1728 16.5511 14.6668 17.2046C14.6423 17.2027 14.6178 17.2009 14.5928 17.2009H7.63362C7.09435 17.2009 6.65704 17.6381 6.65704 18.1775C6.65704 18.7168 7.09435 19.154 7.63362 19.154H13.338C12.622 20.3528 12.0446 21.6117 11.6052 22.9076H0.976578C0.437312 22.9076 0 23.3448 0 23.8842C0 24.4236 0.437312 24.8608 0.976578 24.8608H11.0533C10.7718 26.0962 10.6103 27.3536 10.5686 28.6144H6.2501C5.71083 28.6144 5.27352 29.0517 5.27352 29.591C5.27352 30.1304 5.71083 30.5676 6.2501 30.5676H10.5998C10.6822 31.8317 10.8854 33.0891 11.2096 34.3213H4.88289C4.34362 34.3213 3.90631 34.7585 3.90631 35.2978C3.90631 35.8372 4.34362 36.2744 4.88289 36.2744H11.8328C12.7908 38.8087 14.288 41.1841 16.325 43.221C19.5424 46.4384 23.8038 48.4562 28.324 48.9028C28.9691 48.9665 29.6147 48.9981 30.2595 48.9981C34.0703 48.9981 37.8326 47.8952 41.0251 45.8163C41.477 45.5219 41.6049 44.9169 41.3105 44.465C41.0162 44.013 40.4112 43.8852 39.9592 44.1795C32.9711 48.7301 23.6123 47.7462 17.706 41.8399C10.776 34.9099 10.776 23.6341 17.706 16.704C24.6359 9.77411 35.9118 9.77411 42.8419 16.704C48.7403 22.6025 49.7296 31.9534 45.1941 38.938C44.9003 39.3904 45.0289 39.9953 45.4812 40.2889C45.9337 40.5827 46.5384 40.4541 46.8321 40.0017C49.2554 36.2697 50.3462 31.7623 49.9036 27.3096ZM25.3763 4.32266C25.3763 3.56874 25.9896 2.95545 26.7435 2.95545H33.7748C34.5288 2.95545 35.1421 3.56874 35.1421 4.32266C35.1421 5.07658 34.5288 5.68987 33.7748 5.68987H33.5996H26.9186H26.7435C25.9896 5.68987 25.3763 5.07648 25.3763 4.32266ZM27.8952 9.69706V7.64302H32.6231V9.69354C31.0531 9.50682 29.4648 9.50799 27.8952 9.69706Z" fill="#091422"/>
<path d="M43.5327 41.5535C43.2749 41.5535 43.0239 41.658 42.8424 41.8396C42.6598 42.0212 42.5562 42.2732 42.5562 42.53C42.5562 42.7869 42.6598 43.0388 42.8424 43.2205C43.0239 43.4031 43.275 43.5066 43.5327 43.5066C43.7896 43.5066 44.0405 43.4031 44.2231 43.2205C44.4048 43.0388 44.5093 42.7869 44.5093 42.53C44.5093 42.2732 44.4049 42.0212 44.2231 41.8396C44.0405 41.658 43.7895 41.5535 43.5327 41.5535Z" fill="#091422"/>
<path d="M30.2741 14.1223C21.9206 14.1223 15.1245 20.9183 15.1245 29.2719C15.1245 37.6254 21.9206 44.4214 30.2741 44.4214C38.6275 44.4214 45.4236 37.6254 45.4236 29.2719C45.4236 20.9183 38.6275 14.1223 30.2741 14.1223ZM30.2741 42.4683C22.9975 42.4683 17.0777 36.5483 17.0777 29.2719C17.0777 21.9954 22.9975 16.0755 30.2741 16.0755C37.5506 16.0755 43.4705 21.9954 43.4705 29.2719C43.4705 36.5483 37.5506 42.4683 30.2741 42.4683Z" fill="#091422"/>
<path d="M36.4514 21.7133L31.6144 26.5502C31.2099 26.3502 30.7549 26.2372 30.274 26.2372C29.7929 26.2372 29.338 26.3502 28.9335 26.5502L26.7688 24.3854C26.3873 24.004 25.7691 24.004 25.3876 24.3854C25.0062 24.7667 25.0062 25.3851 25.3876 25.7665L27.5524 27.9312C27.3523 28.3357 27.2394 28.7907 27.2394 29.2717C27.2394 30.945 28.6006 32.3063 30.274 32.3063C31.9473 32.3063 33.3086 30.945 33.3086 29.2717C33.3086 28.7907 33.1956 28.3357 32.9956 27.9312L37.6906 23.2362L37.8325 23.0943C38.2138 22.713 38.2138 22.0946 37.8325 21.7133C37.4511 21.3319 36.833 21.3319 36.4514 21.7133ZM30.274 30.3532C29.6777 30.3532 29.1925 29.8681 29.1925 29.2718C29.1925 28.6755 29.6777 28.1903 30.274 28.1903C30.8703 28.1903 31.3554 28.6755 31.3554 29.2718C31.3554 29.8681 30.8703 30.3532 30.274 30.3532Z" fill="#091422"/>
<path d="M40.7153 28.3071H39.8105C39.2713 28.3071 38.834 28.7443 38.834 29.2837C38.834 29.823 39.2713 30.2603 39.8105 30.2603H40.7153C41.2546 30.2603 41.6919 29.823 41.6919 29.2837C41.6919 28.7443 41.2546 28.3071 40.7153 28.3071Z" fill="#091422"/>
<path d="M20.7372 28.2832H19.8325C19.2933 28.2832 18.856 28.7204 18.856 29.2598C18.856 29.7991 19.2933 30.2363 19.8325 30.2363H20.7372C21.2765 30.2363 21.7138 29.7991 21.7138 29.2598C21.7138 28.7204 21.2765 28.2832 20.7372 28.2832Z" fill="#091422"/>
<path d="M30.2861 20.7116C30.8254 20.7116 31.2627 20.2744 31.2627 19.735V18.8303C31.2627 18.291 30.8254 17.8538 30.2861 17.8538C29.7469 17.8538 29.3096 18.291 29.3096 18.8303V19.735C29.3096 20.2744 29.7469 20.7116 30.2861 20.7116Z" fill="#091422"/>
<path d="M30.2622 37.832C29.7229 37.832 29.2856 38.2692 29.2856 38.8086V39.7133C29.2856 40.2526 29.7229 40.6898 30.2622 40.6898C30.8015 40.6898 31.2388 40.2526 31.2388 39.7133V38.8086C31.2388 38.2692 30.8015 37.832 30.2622 37.832Z" fill="#091422"/>
<path d="M0.976563 34.3208C0.719727 34.3208 0.467774 34.4253 0.286133 34.6069C0.104492 34.7886 0 35.0405 0 35.2974C0 35.5552 0.104395 35.8062 0.286133 35.9878C0.467871 36.1694 0.719727 36.2739 0.976563 36.2739C1.2334 36.2739 1.48535 36.1694 1.66689 35.9878C1.84854 35.8062 1.95313 35.5542 1.95313 35.2974C1.95313 35.0405 1.84863 34.7886 1.66689 34.6069C1.48535 34.4253 1.2334 34.3208 0.976563 34.3208Z" fill="#091422"/>
</g>
<defs>
<clipPath id="clip0_204_435">
<rect width="50" height="50" fill="white"/>
</clipPath>
</defs>
</svg>
