<svg width="50" height="50" viewBox="0 0 50 50" fill="none" xmlns="http://www.w3.org/2000/svg">
<g clip-path="url(#clip0_204_464)">
<path d="M19.7914 8.33352C17.4934 8.33352 15.625 6.46472 15.625 4.16676C15.625 1.8688 17.4934 0 19.7914 0C22.0893 0 23.9581 1.8688 23.9581 4.16676C23.9581 6.46472 22.0893 8.33352 19.7914 8.33352ZM19.7914 2.08338C18.6426 2.08338 17.708 3.01758 17.708 4.16676C17.708 5.31554 18.6426 6.25014 19.7914 6.25014C20.9405 6.25014 21.8747 5.31554 21.8747 4.16676C21.8747 3.01758 20.9405 2.08338 19.7914 2.08338Z" fill="#091422"/>
<path d="M26.0427 37.5001C25.7061 37.5001 25.3759 37.3376 25.1748 37.0364L21.2592 31.1625C20.0874 30.9686 16.9144 30.4449 15.4489 30.1926C13.9239 29.9311 12.5748 29.0426 11.8405 27.8167C11.3354 26.9719 10.8673 25.5593 11.5115 23.6281L12.5529 20.5032C12.7341 19.9573 13.3218 19.6616 13.8706 19.8448C14.4166 20.0272 14.7114 20.6169 14.529 21.1625L13.4871 24.2873C13.1704 25.2355 13.2185 26.0624 13.627 26.7458C14.0538 27.4583 14.8656 27.9793 15.7998 28.1398C17.6122 28.4501 22.0436 29.1801 22.0436 29.1801C22.3281 29.227 22.5812 29.3895 22.7406 29.6303L26.9069 35.8804C27.2268 36.3593 27.0977 37.0054 26.6184 37.3249C26.4416 37.4429 26.2405 37.5001 26.0427 37.5001Z" fill="#091422"/>
<path d="M30.2091 37.5001C29.8093 37.5001 29.429 37.27 29.2562 36.8814L25.2416 27.8481L19.3261 24.8897C18.9247 24.6894 18.6966 24.2543 18.7614 23.8105L19.8029 16.5188C19.8685 16.0603 20.2281 15.6998 20.6862 15.6355L27.782 14.6218L34.9007 10.554C35.3998 10.2687 36.0364 10.4427 36.3217 10.9418C36.607 11.4405 36.433 12.0771 35.9343 12.3624L28.6427 16.5291C28.529 16.5947 28.4038 16.6376 28.2739 16.6563L21.7551 17.5873L20.9302 23.3626L26.508 26.1521C26.7238 26.2606 26.8958 26.4394 26.9948 26.6603L31.1612 36.0354C31.3948 36.5615 31.1584 37.177 30.6323 37.4102C30.4936 37.4718 30.3509 37.5001 30.2091 37.5001Z" fill="#091422"/>
<path d="M1.04149 25.0002C0.817777 25.0002 0.592869 24.9283 0.402929 24.7813C-0.0520533 24.4272 -0.133513 23.7731 0.218949 23.319L7.51059 13.9439C7.629 13.7918 7.78636 13.6749 7.96676 13.6074L16.2999 10.4825C16.4179 10.4384 16.5415 10.4165 16.6667 10.4165H26.8376L34.951 6.35945C35.4668 6.10117 36.0906 6.31058 36.3489 6.82516C36.6064 7.33975 36.3978 7.9656 35.8832 8.22309L27.5501 12.3895C27.405 12.4626 27.2449 12.4999 27.0832 12.4999H16.8554L8.97487 15.4551L1.86444 24.5981C1.6582 24.8615 1.35104 25.0002 1.04149 25.0002Z" fill="#091422"/>
<path d="M5.20848 25.0001C4.97324 25.0001 4.73681 24.9206 4.5417 24.7581C4.10023 24.3893 4.04102 23.7333 4.40859 23.2914L9.61684 17.0417C9.76903 16.8593 9.97924 16.7341 10.2129 16.6872L15.4211 15.6457C15.9886 15.5353 16.5346 15.8989 16.647 16.4623C16.7595 17.027 16.3939 17.5749 15.8304 17.6886L10.9826 18.6582L6.00837 24.625C5.80214 24.8717 5.5065 25.0001 5.20848 25.0001Z" fill="#091422"/>
<path d="M13.5419 43.7497C13.4334 43.7497 13.3222 43.7322 13.2125 43.6957C12.6669 43.5145 12.3721 42.9248 12.5545 42.378L16.7208 29.8781C16.902 29.3333 17.4917 29.0365 18.0385 29.2197C18.5845 29.4009 18.8793 29.9906 18.6969 30.5374L14.5302 43.0372C14.3843 43.4739 13.9782 43.7497 13.5419 43.7497Z" fill="#091422"/>
<path d="M9.37498 43.7498C9.28438 43.7498 9.19259 43.7386 9.10001 43.7136C8.54489 43.5614 8.21786 42.9896 8.36886 42.4345L11.4937 30.9761C11.6459 30.421 12.2165 30.0908 12.7729 30.245C13.328 30.3967 13.655 30.9686 13.504 31.5241L10.3791 42.9821C10.2532 43.4458 9.83315 43.7498 9.37498 43.7498Z" fill="#091422"/>
<path d="M48.9584 10.4166H43.7498C43.174 10.4166 42.7083 9.95012 42.7083 9.37513C42.7083 8.80014 43.174 8.33364 43.7498 8.33364H47.0125L46.0084 6.82842C45.7751 6.47834 45.7751 6.02297 46.0084 5.67289L47.0125 4.16688H39.5834C39.0072 4.16688 38.5415 3.69997 38.5415 3.12499C38.5415 2.55 39.0072 2.0835 39.5834 2.0835H48.9584C49.3427 2.0835 49.6959 2.29489 49.8771 2.63345C50.0583 2.972 50.0373 3.38327 49.8251 3.70236L48.1271 6.25026L49.8251 8.79697C50.0373 9.11684 50.0583 9.52732 49.8771 9.86588C49.6959 10.2044 49.3427 10.4166 48.9584 10.4166Z" fill="#091422"/>
<path d="M39.5834 37.5001C39.0072 37.5001 38.5415 37.0344 38.5415 36.4582V1.04149C38.5415 0.466506 39.0072 0 39.5834 0C40.1592 0 40.6249 0.466506 40.6249 1.04149V36.4582C40.6249 37.0344 40.1592 37.5001 39.5834 37.5001Z" fill="#091422"/>
<path d="M9.37502 50H1.04149C0.466506 50 0 49.5343 0 48.9585C0 48.3823 0.466506 47.9166 1.04149 47.9166H8.33352V45.8333C8.33352 45.2575 8.80003 44.7918 9.37502 44.7918H16.6667V42.7084C16.6667 42.1322 17.1332 41.6669 17.7081 41.6669H25.0002V39.5835C25.0002 39.0073 25.4667 38.5416 26.0417 38.5416H33.3333V36.4582C33.3333 35.8825 33.799 35.4167 34.3752 35.4167H39.5834C40.1592 35.4167 40.6249 35.8825 40.6249 36.4582C40.6249 37.0344 40.1592 37.5001 39.5834 37.5001H35.4167V39.5835C35.4167 40.1593 34.951 40.625 34.3752 40.625H27.0832V42.7084C27.0832 43.2846 26.6178 43.7499 26.0417 43.7499H18.75V45.8333C18.75 46.4094 18.2835 46.8751 17.7081 46.8751H10.4165V48.9585C10.4165 49.5343 9.95 50 9.37502 50Z" fill="#091422"/>
<path d="M48.9586 37.5001H43.75C43.1742 37.5001 42.7085 37.0344 42.7085 36.4582C42.7085 35.8825 43.1742 35.4167 43.75 35.4167H48.9586C49.5344 35.4167 50.0001 35.8825 50.0001 36.4582C50.0001 37.0344 49.5344 37.5001 48.9586 37.5001Z" fill="#091422"/>
<path d="M38.5415 47.9165H40.6249V49.9999H38.5415V47.9165Z" fill="#091422"/>
<path d="M38.5415 43.7498H40.6249V45.8331H38.5415V43.7498Z" fill="#091422"/>
<path d="M38.5415 39.5835H40.6249V41.6669H38.5415V39.5835Z" fill="#091422"/>
</g>
<defs>
<clipPath id="clip0_204_464">
<rect width="50" height="50" fill="white"/>
</clipPath>
</defs>
</svg>
