<svg width="50" height="50" viewBox="0 0 50 50" fill="none" xmlns="http://www.w3.org/2000/svg">
<g clip-path="url(#clip0_204_447)">
<path d="M0.56665 46.6773L1.2148 48.1363L24.4729 38.4924L28.5249 38.9787L29.9834 43.4358L28.0385 45.2999C27.3093 45.9481 27.0663 47.0014 27.4715 47.974L28.2819 50L41.7339 44.7325L41.0047 42.7877C40.6806 41.8151 39.7891 41.248 38.7358 41.248H36.0613L34.6027 37.7631L38.1683 35.9805C39.3028 35.4131 39.7891 34.1164 39.3839 32.982L34.765 20.5833C34.2787 19.2866 32.9008 18.7191 31.6042 19.1243C31.6042 19.1243 31.5234 19.1243 31.5234 19.2055L28.1197 20.664L27.6334 19.4484L29.4975 17.2606C30.7938 15.8017 31.6042 14.0191 31.8475 12.0742L34.1975 9.2379C35.7372 7.4549 35.4131 4.78079 33.6301 3.24075C33.306 2.99779 32.982 2.75483 32.6579 2.5926C31.7664 2.18741 30.8749 2.10629 29.9027 2.34964L29.6593 1.61998C29.2541 0.323686 27.7956 -0.324858 26.58 0.161451L9.48086 6.32044C8.18417 6.80675 7.53602 8.18416 8.02233 9.39974V9.48085L8.42752 10.5342C6.32045 11.5068 5.34783 13.938 6.0771 16.045C6.64452 17.6658 8.10305 18.8003 9.80494 19.0432L13.6139 19.4484C15.1535 20.5833 17.0173 21.3125 18.8814 21.4744L21.5555 21.7177L22.0418 22.9333C21.4744 23.2574 21.0692 23.8248 20.9073 24.5541L20.3399 27.3093L0.56665 35.332L1.13408 36.8716L12.4794 32.3338L15.2347 40.5995L0.56665 46.6773ZM39.3839 43.274L39.5461 43.7599L29.173 47.8929L28.93 47.4066C28.8489 47.0825 28.93 46.7585 29.0923 46.5155L31.8475 43.9221L35.332 42.7877H38.5735C38.9787 42.7877 39.2221 42.9495 39.3839 43.274ZM34.2787 41.3287L31.3612 42.3014L30.3079 39.2221C30.7938 39.3028 31.199 39.2221 31.6042 38.9787L32.982 38.3306L34.2787 41.3287ZM32.0905 20.421C32.4957 20.2588 32.982 20.421 33.1442 20.8262L33.7923 22.5281L29.8216 23.8248L30.3079 25.3644L34.2787 24.0677L35.2509 26.6611L31.4423 27.9574L31.9286 29.4975L35.8183 28.2008L36.7909 30.7938L33.0631 32.0093L33.5494 33.5494L37.358 32.2527L37.7631 33.306C37.9254 33.7112 37.7631 34.1164 37.358 34.2786L30.956 37.4391C30.7938 37.5202 30.6319 37.5202 30.4697 37.5202L24.9593 36.8716L21.9607 27.8767L22.5281 24.8781C22.6092 24.6352 22.7711 24.3918 23.0144 24.3107L32.0905 20.421ZM32.0093 4.05113C33.306 4.61856 33.9546 6.15821 33.3872 7.53601C33.306 7.77897 33.1442 7.94121 32.982 8.18416L32.0093 9.39974C31.9286 8.58935 31.7664 7.86009 31.5234 7.04971L30.4697 3.88929C31.0371 3.80817 31.5234 3.88929 32.0093 4.05113ZM7.69786 15.6398C7.21195 14.262 7.77898 12.8035 9.07567 12.155L10.2101 14.9106C10.6153 15.8828 11.1827 16.8554 11.8309 17.6658L10.129 17.5036C8.99455 17.4224 8.02233 16.6932 7.69786 15.6398ZM19.2055 19.9347C15.8828 19.6106 12.9653 17.5036 11.7498 14.3432L9.6431 8.99455C9.48086 8.58935 9.6431 8.10305 10.0483 7.94121L27.147 1.78222C27.3904 1.7011 27.5522 1.7011 27.7956 1.78222C27.9574 1.86333 28.1197 2.02517 28.2008 2.26853L29.9834 7.61713C30.956 10.6153 30.3079 13.8568 28.2819 16.2069L25.7696 19.1243L26.4989 21.0692L23.5814 22.2847L22.7711 20.2588L19.2055 19.9347ZM14.0191 31.6853L15.8828 30.956L17.9088 37.115L19.4484 36.6287L17.3417 30.3079L20.5833 29.0112L23.3385 37.1961L16.7743 39.9513L14.0191 31.6853Z" fill="#091422"/>
<path d="M40.5995 14.181V14.9913H42.2203V14.181C42.2203 11.9121 44.0033 10.1291 46.2722 10.1291V8.50829C44.0033 8.50829 42.2203 6.72569 42.2203 4.45638V3.646H40.5995V4.45638C40.5995 6.72569 38.8169 8.50829 36.5476 8.50829V10.1291C38.8169 10.1291 40.5995 11.9121 40.5995 14.181ZM41.4099 7.37383C41.8962 8.18422 42.5444 8.83276 43.3548 9.31867C42.5444 9.80498 41.8962 10.4535 41.4099 11.2639C40.9236 10.4535 40.2755 9.80498 39.4651 9.31867C40.2755 8.83276 40.9236 8.18422 41.4099 7.37383Z" fill="#091422"/>
<path d="M4.94254 30.3885V31.1989H6.56331V30.3885C6.56331 28.1196 8.34631 26.3366 10.6152 26.3366V24.7158C8.34631 24.7158 6.56331 22.9332 6.56331 20.6639V19.8535H4.94254V20.6639C4.94254 22.9332 3.15994 24.7158 0.890625 24.7158V26.3366C3.15994 26.3366 4.94254 28.1196 4.94254 30.3885ZM5.75292 23.5814C6.23923 24.3917 6.88738 25.0403 7.69776 25.5262C6.88738 26.0125 6.23923 26.661 5.75292 27.4714C5.26661 26.661 4.61847 26.0125 3.80808 25.5262C4.61847 25.0403 5.26661 24.3917 5.75292 23.5814Z" fill="#091422"/>
<path d="M45.4618 20.6639V19.8535H43.841V20.6639C43.841 22.9332 42.0584 24.7158 39.7891 24.7158V26.3366C42.0584 26.3366 43.841 28.1196 43.841 30.3885V31.1989H45.4618V30.3885C45.4618 28.1196 47.2448 26.3366 49.5137 26.3366V24.7158C47.2448 24.7158 45.4618 22.9332 45.4618 20.6639ZM44.6514 27.4714C44.1651 26.661 43.5169 26.0125 42.7065 25.5262C43.5169 25.0403 44.1651 24.3917 44.6514 23.5814C45.1377 24.3917 45.7858 25.0403 46.5962 25.5262C45.7858 26.0125 45.1377 26.661 44.6514 27.4714Z" fill="#091422"/>
<path d="M24.6351 14.4242L25.7696 15.5586C30.2267 11.1015 26.0937 4.29438 25.8507 4.05103L24.4729 4.94253C24.554 4.94253 28.2007 10.8586 24.6351 14.4242Z" fill="#091422"/>
</g>
<defs>
<clipPath id="clip0_204_447">
<rect width="50" height="50" fill="white"/>
</clipPath>
</defs>
</svg>
