<svg width="50" height="50" viewBox="0 0 50 50" fill="none" xmlns="http://www.w3.org/2000/svg">
<g clip-path="url(#clip0_204_453)">
<path d="M25 41.4062C23.7078 41.4062 22.6562 42.4578 22.6562 43.75C22.6562 45.0422 23.7078 46.0938 25 46.0938C26.2922 46.0938 27.3438 45.0422 27.3438 43.75C27.3438 42.4578 26.2922 41.4062 25 41.4062ZM25 44.5312C24.5688 44.5312 24.2188 44.1813 24.2188 43.75C24.2188 43.3188 24.5688 42.9688 25 42.9688C25.4313 42.9688 25.7812 43.3188 25.7812 43.75C25.7812 44.1813 25.4313 44.5312 25 44.5312Z" fill="#091422"/>
<path d="M49.2188 45.3125C49.2188 36.1172 43.9945 27.7492 35.8281 23.6609L37.0102 22.5445C38.8109 20.8438 39.8438 18.4469 39.8438 15.9695C39.8438 13.0563 38.4273 10.3055 36.0344 8.59609C34.6016 7.57188 32.9133 7.03125 31.1523 7.03125C28.8188 7.03125 26.5773 8.02109 25 9.71484C23.4227 8.02109 21.1812 7.03125 18.8477 7.03125C17.0867 7.03125 15.3984 7.57187 13.9437 8.61172C11.5727 10.3055 10.1562 13.0563 10.1562 15.9695C10.1562 18.4469 11.1891 20.843 12.9898 22.5438L14.1719 23.6602C6.00547 27.7492 0.78125 36.1172 0.78125 45.3125V46.0938H20.0664C20.9461 47.9383 22.8242 49.2188 25 49.2188C27.1758 49.2188 29.0531 47.9383 29.9336 46.0938H49.2188V45.3125ZM39.9594 32.7836C40.3266 32.1883 40.5516 31.5117 40.607 30.8102L41.5555 29.8617C43.2258 31.6539 44.5914 33.7047 45.6063 35.932L42.7188 37.1281C42.0016 35.5734 41.075 34.1148 39.9594 32.7836ZM28.5992 39.643L37.5891 32.0727C37.9773 31.7461 38.4305 31.5094 38.9133 31.3766C38.7656 31.8141 38.5117 32.2141 38.1719 32.5359L29.5336 40.6945C29.2688 40.3039 28.9523 39.9531 28.5992 39.643ZM40.4523 28.7555L39.4891 29.7188C38.7812 29.7688 38.0961 29.9602 37.4734 30.2906C35.8656 28.9531 34.0812 27.8945 32.1477 27.1359L34.6156 24.8055C36.7898 25.8266 38.7508 27.1648 40.4523 28.7555ZM21.5328 16.218L21.382 16.268C20.7422 16.4812 20.3125 17.0766 20.3125 17.7508V18.9531C20.1016 18.6109 19.9266 18.2469 19.7992 17.8648C19.6211 17.332 19.5312 16.7766 19.5312 16.2125V15.625C19.5312 14.7852 19.8086 13.9523 20.3125 13.2812C21.0461 12.3031 22.2148 11.7188 23.4375 11.7188H26.5625C27.7852 11.7188 28.9539 12.3031 29.6875 13.282C30.1914 13.9523 30.4688 14.7852 30.4688 15.625V16.2125C30.4688 16.7766 30.3789 17.332 30.2008 17.8648C30.0734 18.2469 29.8984 18.6109 29.6875 18.9531V17.7508C29.6875 17.0773 29.2578 16.4813 28.6203 16.2695L28.4672 16.2188C27.4023 15.8633 26.3539 15.4289 25.35 14.9273L25 14.7516L24.6508 14.9266C23.6469 15.4281 22.5984 15.8625 21.5328 16.218ZM21.8758 17.7508L22.0273 17.7C23.0391 17.3625 24.0367 16.9586 25 16.4953C25.9625 16.9586 26.9609 17.3625 27.9719 17.7L28.125 17.7508V20.3125C28.125 21.6047 27.0734 22.6562 25.7812 22.6562H24.2188C22.9266 22.6562 21.875 21.6047 21.875 20.3125L21.8758 17.7508ZM24.2188 24.2188H25.7812C25.9688 24.2188 26.1484 24.1891 26.3297 24.1633L26.4789 24.7602L25 26.2391L23.5211 24.7602L23.6703 24.1633C23.8516 24.1891 24.0312 24.2188 24.2188 24.2188ZM22.4164 25.8648L25 28.4484L27.5836 25.8648L28.9906 26.2172C29.4414 26.3297 29.8633 26.5273 30.2461 26.7836L25 31.7383L19.7539 26.7836C20.1367 26.5266 20.5578 26.3297 21.0094 26.2172L22.4164 25.8648ZM35.1484 9.88281C37.1102 11.2844 38.2812 13.5594 38.2812 15.9695C38.2812 18.0188 37.4266 20.0008 35.9375 21.4086L31.4086 25.6859C30.8047 25.2234 30.1117 24.8867 29.3695 24.7016L27.9875 24.3563L27.807 23.6359C28.5773 23.1648 29.1633 22.4375 29.4609 21.5703L29.9234 21.1289C30.7242 20.3664 31.3328 19.4086 31.682 18.3594C31.9141 17.6664 32.0312 16.9438 32.0312 16.2125V15.625C32.0312 14.4484 31.643 13.2836 30.9375 12.3445C29.9562 11.0359 28.4187 10.2391 26.7914 10.1703C28.0062 9.16562 29.5523 8.59375 31.1523 8.59375C32.5859 8.59375 33.9602 9.03359 35.1484 9.88281ZM11.7188 15.9695C11.7188 13.5594 12.8898 11.2844 14.8734 9.86641C16.0398 9.03359 17.4141 8.59375 18.8477 8.59375C20.4477 8.59375 21.9937 9.16563 23.2094 10.1695C21.5812 10.2391 20.0437 11.0352 19.0633 12.343C18.357 13.2836 17.9688 14.4484 17.9688 15.625V16.2125C17.9688 16.9445 18.0859 17.6664 18.3172 18.3594C18.6664 19.4086 19.275 20.3664 20.075 21.1281L20.5383 21.5695C20.8359 22.4375 21.4219 23.1641 22.1922 23.6352L22.0117 24.3555L20.6297 24.7008C19.8875 24.8859 19.1945 25.2227 18.5906 25.6852L14.0625 21.4086C12.5734 20.0016 11.7188 18.0188 11.7188 15.9695ZM17.8547 27.1383C15.5531 28.0398 13.4984 29.3461 11.75 30.957L9.54766 28.7547C11.2492 27.1641 13.2102 25.8258 15.3844 24.8047L17.8547 27.1383ZM7.26797 37.1219L4.39297 35.9312C5.40781 33.7039 6.77344 31.6531 8.44375 29.8609L10.6437 32.0609C9.26172 33.5586 8.12266 35.2641 7.26797 37.1219ZM3.79453 37.375L6.67188 38.5664C5.98438 40.4469 5.58125 42.4523 5.5 44.5312H2.35781C2.44297 42.0445 2.94766 39.6359 3.79453 37.375ZM7.0625 44.5312C7.37813 37.1477 12.1234 30.7578 19.1258 28.3391L25 33.8867L30.8703 28.343C32.7891 29.0063 34.5547 29.9836 36.1445 31.2469L27.2234 38.7594C26.543 38.4539 25.7922 38.2812 25 38.2812C21.9852 38.2812 19.5312 40.7352 19.5312 43.75C19.5312 44.0156 19.557 44.275 19.5938 44.5312H7.0625ZM25 47.6562C22.8461 47.6562 21.0938 45.9039 21.0938 43.75C21.0938 41.5961 22.8461 39.8438 25 39.8438C27.1539 39.8438 28.9062 41.5961 28.9062 43.75C28.9062 45.9039 27.1539 47.6562 25 47.6562ZM30.2359 42.1789L38.9195 33.9789C41.3617 36.9758 42.7648 40.6648 42.9328 44.532H30.4062C30.443 44.2758 30.4688 44.0164 30.4688 43.7508C30.4688 43.2039 30.3859 42.6766 30.2359 42.1789ZM44.4953 44.5312C44.4133 42.4781 44.0211 40.4688 43.3227 38.5688L46.2055 37.375C47.0531 39.6359 47.557 42.0445 47.643 44.5312H44.4953Z" fill="#091422"/>
<path d="M24.2188 0.78125H25.7812V3.90625H24.2188V0.78125Z" fill="#091422"/>
<path d="M2.99023 14.8298L3.24648 13.2892L7.93229 14.0686L7.67604 15.6092L2.99023 14.8298Z" fill="#091422"/>
<path d="M7.25903 6.02148L8.36389 4.91663L11.489 8.04171L10.3841 9.14656L7.25903 6.02148Z" fill="#091422"/>
<path d="M14.9192 1.91479L16.3161 1.21636L17.8778 4.33977L16.4809 5.03821L14.9192 1.91479Z" fill="#091422"/>
<path d="M42.0371 14.085L46.7229 13.3056L46.9792 14.8462L42.2934 15.6256L42.0371 14.085Z" fill="#091422"/>
<path d="M38.5059 8.04492L41.6309 4.91984L42.7358 6.0247L39.6107 9.14978L38.5059 8.04492Z" fill="#091422"/>
<path d="M32.106 4.35156L33.6677 1.22815L35.0645 1.92659L33.5028 5.05L32.106 4.35156Z" fill="#091422"/>
</g>
<defs>
<clipPath id="clip0_204_453">
<rect width="50" height="50" fill="white"/>
</clipPath>
</defs>
</svg>
