<svg width="24" height="24" viewBox="0 0 24 24" fill="none" xmlns="http://www.w3.org/2000/svg">
<path d="M12 15L4 10V18H20V10L12 15Z" fill="white"/>
<path d="M3 8.06C3.00027 7.88887 3.04445 7.72066 3.12831 7.57149C3.21218 7.42232 3.33293 7.29716 3.479 7.208L12 2L20.521 7.208C20.6671 7.29716 20.7878 7.42232 20.8717 7.57149C20.9556 7.72066 20.9997 7.88887 21 8.06V18C21 18.2652 20.8946 18.5196 20.7071 18.7071C20.5196 18.8946 20.2652 19 20 19H4C3.73478 19 3.48043 18.8946 3.29289 18.7071C3.10536 18.5196 3 18.2652 3 18V8.06Z" stroke="white" stroke-width="2"/>
<path d="M3 8.5L12 14L21 8.5" stroke="white" stroke-width="2" stroke-linecap="round"/>
</svg>
